<svg xmlns="http://www.w3.org/2000/svg" viewBox="0 0 24 24" width="64" height="64" aria-hidden="true">
  <defs>
    <linearGradient id="g" x1="0%" x2="100%" y1="0%" y2="100%">
      <stop offset="0%" stop-color="#48b37a" />
      <stop offset="100%" stop-color="#2d7d32" />
    </linearGradient>
  </defs>
  <!-- Tubing -->
  <path d="M6 16c0-2.2 1.8-4 4-4h0c2.2 0 4 1.8 4 4v0c0 2.2-1.8 4-4 4H8" fill="none" stroke="url(#g)" stroke-width="1.6" stroke-linecap="round" stroke-linejoin="round"/>
  <!-- Binaurals -->
  <path d="M9 3.5v4.5" stroke="#2d7d32" stroke-width="1.6" stroke-linecap="round"/>
  <path d="M15 3.5v4.5" stroke="#2d7d32" stroke-width="1.6" stroke-linecap="round"/>
  <!-- Headset curve -->
  <path d="M9 8c0 1.2 0.9 1.8 1.9 2" stroke="#2d7d32" stroke-width="1.4" stroke-linecap="round" fill="none"/>
  <path d="M15 8c0 1.2-0.9 1.8-1.9 2" stroke="#2d7d32" stroke-width="1.4" stroke-linecap="round" fill="none"/>
  <!-- Diaphragm -->
  <circle cx="18" cy="17" r="3.2" fill="#fff" stroke="url(#g)" stroke-width="1.6"/>
  <circle cx="18" cy="17" r="1.6" fill="#81c784"/>
  <!-- Detail inner ring -->
  <path d="M16.2 17a1.8 1.8 0 0 0 3.6 0" stroke="#2d7d32" stroke-width="0.9" stroke-linecap="round" fill="none"/>
</svg>